<?xml version="1.0" encoding="utf-8"?>
<!-- Generator: Adobe Illustrator 16.0.0, SVG Export Plug-In . SVG Version: 6.00 Build 0)  -->
<!DOCTYPE svg PUBLIC "-//W3C//DTD SVG 1.1//EN" "http://www.w3.org/Graphics/SVG/1.1/DTD/svg11.dtd">
<svg version="1.1" id="Layer_1" xmlns="http://www.w3.org/2000/svg" xmlns:xlink="http://www.w3.org/1999/xlink" x="0px" y="0px"
	 width="90px" height="90px" viewBox="0 0 90 90" enable-background="new 0 0 90 90" xml:space="preserve">
<g>
	<path fill="#FFFFFF" d="M81.652,28.71c0,0.9-0.729,1.629-1.629,1.629H9.976c-0.9,0-1.629-0.729-1.629-1.629V17.307
		c0-0.9,0.729-1.629,1.629-1.629h70.047c0.9,0,1.629,0.729,1.629,1.629V28.71L81.652,28.71z"/>
	<path fill="#FFFFFF" d="M81.652,50.702c0,0.899-0.729,1.629-1.629,1.629H9.976c-0.9,0-1.629-0.729-1.629-1.629V39.298
		c0-0.9,0.729-1.629,1.629-1.629h70.047c0.9,0,1.629,0.729,1.629,1.629V50.702L81.652,50.702z"/>
	<path fill="#FFFFFF" d="M81.652,72.693c0,0.899-0.729,1.629-1.629,1.629H9.976c-0.9,0-1.629-0.729-1.629-1.629V61.29
		c0-0.899,0.729-1.629,1.629-1.629h70.047c0.9,0,1.629,0.729,1.629,1.629V72.693L81.652,72.693z"/>
</g>
</svg>
